<svg width="24" height="24" viewBox="0 0 24 24" fill="none" xmlns="http://www.w3.org/2000/svg">
<g clip-path="url(#clip0_9058_3548)">
<path d="M15.75 10.5V6C15.75 3.92893 14.0711 2.25 12 2.25C9.92893 2.25 8.25 3.92893 8.25 6V10.5M19.606 8.50723L20.8692 20.5072C20.9391 21.1715 20.4183 21.75 19.7504 21.75H4.24963C3.58172 21.75 3.06089 21.1715 3.13081 20.5072L4.39397 8.50723C4.45424 7.93466 4.93706 7.5 5.51279 7.5H18.4872C19.0629 7.5 19.5458 7.93466 19.606 8.50723ZM8.625 10.5C8.625 10.7071 8.4571 10.875 8.25 10.875C8.04289 10.875 7.875 10.7071 7.875 10.5C7.875 10.2929 8.04289 10.125 8.25 10.125C8.4571 10.125 8.625 10.2929 8.625 10.5ZM16.125 10.5C16.125 10.7071 15.9571 10.875 15.75 10.875C15.5429 10.875 15.375 10.7071 15.375 10.5C15.375 10.2929 15.5429 10.125 15.75 10.125C15.9571 10.125 16.125 10.2929 16.125 10.5Z" stroke="#010101" stroke-width="1.5" stroke-linecap="round" stroke-linejoin="round"/>
<rect x="14" width="10" height="10" rx="5" fill="#EF4444"/>
<path d="M18.904 8C18.7547 8 18.632 7.95467 18.536 7.864C18.44 7.768 18.392 7.65067 18.392 7.512V3.48L18.504 3.656L17.92 4.088C17.8453 4.14667 17.752 4.176 17.64 4.176C17.512 4.176 17.4 4.128 17.304 4.032C17.208 3.936 17.16 3.82133 17.16 3.688C17.16 3.51733 17.2427 3.37867 17.408 3.272L18.56 2.504C18.6133 2.46667 18.672 2.44 18.736 2.424C18.8053 2.408 18.8693 2.4 18.928 2.4C19.0827 2.4 19.2053 2.448 19.296 2.544C19.3867 2.63467 19.432 2.74933 19.432 2.888V7.512C19.432 7.65067 19.3813 7.768 19.28 7.864C19.184 7.95467 19.0587 8 18.904 8Z" fill="white"/>
</g>
<defs>
<clipPath id="clip0_9058_3548">
<rect width="24" height="24" fill="white"/>
</clipPath>
</defs>
</svg>
